<svg width="1152" height="502" viewBox="0 0 1152 502" fill="none" xmlns="http://www.w3.org/2000/svg">
<path d="M49 524C132.333 262 352.6 -151.2 567 292C656.978 478 921 466 957 274C981 146 1069.4 64.8 1215 196" stroke="#3D99F5" stroke-width="4" stroke-linecap="round" stroke-dasharray="1 7"/>
<path d="M-138.341 431.466C-114.776 345.088 -23.1828 201.476 154.673 318.052C285.652 403.902 403.419 264.755 416.632 165.247" stroke="#68C8CD" stroke-width="4" stroke-linecap="round" stroke-dasharray="1 7"/>
<path d="M268 146L269.905 145.39L268 146ZM-46.0963 146.787C-45.4422 145.897 -45.6334 144.645 -46.5234 143.991C-47.4134 143.336 -48.6652 143.528 -49.3194 144.418L-46.0963 146.787ZM-45.1102 138.781C-45.7778 139.661 -45.6056 140.916 -44.7256 141.584C-43.8456 142.251 -42.591 142.079 -41.9235 141.199L-45.1102 138.781ZM-41.3122 140.395C-40.6427 139.516 -40.8122 138.262 -41.6908 137.592C-42.5693 136.923 -43.8243 137.092 -44.4937 137.971L-41.3122 140.395ZM-40.1596 132.369C-40.8419 133.238 -40.691 134.495 -39.8224 135.178C-38.9538 135.86 -37.6965 135.709 -37.0141 134.84L-40.1596 132.369ZM-36.3968 134.056C-35.7127 133.189 -35.861 131.932 -36.7282 131.247C-37.5954 130.563 -38.853 130.712 -39.5371 131.579L-36.3968 134.056ZM-35.088 126.023C-35.7847 126.88 -35.6546 128.14 -34.7975 128.837C-33.9403 129.533 -32.6807 129.403 -31.984 128.546L-35.088 126.023ZM-31.3498 127.767C-30.6514 126.912 -30.7789 125.652 -31.6346 124.953C-32.4903 124.255 -33.7502 124.382 -34.4487 125.238L-31.3498 127.767ZM-29.9556 119.813C-30.6661 120.658 -30.5566 121.92 -29.7109 122.63C-28.8652 123.341 -27.6036 123.231 -26.8931 122.386L-29.9556 119.813ZM-26.2448 121.616C-25.5325 120.772 -25.6395 119.51 -26.4837 118.797C-27.3279 118.085 -28.5898 118.192 -29.302 119.036L-26.2448 121.616ZM-24.6916 113.651C-25.4159 114.484 -25.327 115.748 -24.4931 116.472C-23.6591 117.196 -22.3959 117.107 -21.6716 116.273L-24.6916 113.651ZM-21.0162 115.52C-20.2903 114.688 -20.3766 113.424 -21.2091 112.699C-22.0415 111.973 -23.3049 112.059 -24.0309 112.891L-21.0162 115.52ZM-19.3332 107.582C-20.0712 108.404 -20.003 109.669 -19.1811 110.407C-18.3592 111.144 -17.0947 111.076 -16.3568 110.254L-19.3332 107.582ZM-15.6811 109.503C-14.9415 108.683 -15.0069 107.418 -15.8273 106.679C-16.6477 105.939 -17.9123 106.005 -18.652 106.825L-15.6811 109.503ZM-13.8845 101.614C-14.636 102.423 -14.589 103.689 -13.7795 104.44C-12.97 105.192 -11.7045 105.145 -10.953 104.335L-13.8845 101.614ZM-10.2699 103.601C-9.51665 102.793 -9.56102 101.527 -10.369 100.774C-11.1769 100.021 -12.4424 100.065 -13.1956 100.873L-10.2699 103.601ZM-8.31748 95.7181C-9.08269 96.5146 -9.05726 97.7807 -8.26068 98.5459C-7.46411 99.3111 -6.19803 99.2857 -5.43282 98.4891L-8.31748 95.7181ZM-4.73997 97.7694C-3.97305 96.9745 -3.99576 95.7083 -4.79068 94.9414C-5.58561 94.1745 -6.85174 94.1972 -7.61866 94.9921L-4.73997 97.7694ZM-2.66784 89.9382C-3.44685 90.7213 -3.44355 91.9876 -2.66046 92.7666C-1.87738 93.5457 -0.611054 93.5424 0.167954 92.7593L-2.66784 89.9382ZM0.877184 92.0479C1.65794 91.2666 1.65746 90.0002 0.876111 89.2195C0.0947667 88.4387 -1.17156 88.4392 -1.95232 89.2206L0.877184 92.0479ZM3.0951 84.2484C2.30205 85.0173 2.28245 86.2834 3.05131 87.0765C3.82018 87.8695 5.08636 87.8891 5.8794 87.1203L3.0951 84.2484ZM6.59944 86.4238C7.39425 85.6568 7.41678 84.3906 6.64974 83.5958C5.88271 82.801 4.61658 82.7785 3.82176 83.5455L6.59944 86.4238ZM8.9605 78.667C8.15316 79.4209 8.10978 80.6864 8.86361 81.4938C9.61745 82.3011 10.883 82.3445 11.6904 81.5907L8.9605 78.667ZM12.4247 80.9067C13.2339 80.1548 13.2803 78.8893 12.5284 78.0801C11.7765 77.271 10.511 77.2246 9.70189 77.9764L12.4247 80.9067ZM14.9333 73.1979C14.1113 73.9358 14.0431 75.2003 14.781 76.0223C15.5188 76.8442 16.7833 76.9124 17.6053 76.1746L14.9333 73.1979ZM18.3519 75.5061C19.1757 74.7703 19.2471 73.506 18.5113 72.6822C17.7755 71.8583 16.5112 71.787 15.6874 72.5228L18.3519 75.5061ZM21.0142 67.8503C20.1772 68.5711 20.083 69.8339 20.8038 70.6709C21.5246 71.5079 22.7874 71.6021 23.6244 70.8813L21.0142 67.8503ZM24.3857 70.2274C25.2246 69.5088 25.3221 68.2463 24.6035 67.4074C23.8849 66.5685 22.6224 66.471 21.7835 67.1896L24.3857 70.2274ZM27.2119 62.6278C26.3595 63.3303 26.238 64.5907 26.9404 65.4432C27.6429 66.2956 28.9034 66.4171 29.7558 65.7146L27.2119 62.6278ZM30.5287 65.0795C31.383 64.3794 31.5081 63.1193 30.808 62.2649C30.1079 61.4106 28.8478 61.2855 27.9934 61.9856L30.5287 65.0795ZM33.5256 57.5441C32.6573 58.2268 32.5068 59.4842 33.1896 60.3525C33.8723 61.2208 35.1296 61.3712 35.9979 60.6885L33.5256 57.5441ZM36.7872 60.0699C37.6575 59.3898 37.8117 58.1328 37.1316 57.2625C36.4515 56.3922 35.1946 56.238 34.3242 56.9181L36.7872 60.0699ZM39.952 52.6156C39.0673 53.277 38.8862 54.5303 39.5476 55.415C40.2089 56.2997 41.4622 56.4808 42.3469 55.8194L39.952 52.6156ZM43.146 55.2241C44.0328 54.5656 44.2178 53.3128 43.5593 52.426C42.9008 51.5392 41.648 51.3542 40.7612 52.0127L43.146 55.2241ZM46.5208 47.8364C45.6191 48.4744 45.4053 49.7226 46.0433 50.6243C46.6813 51.526 47.9294 51.7397 48.8311 51.1017L46.5208 47.8364ZM49.6483 50.5256C50.5521 49.8907 50.7701 48.6433 50.1352 47.7394C49.5003 46.8356 48.2529 46.6176 47.349 47.2525L49.6483 50.5256ZM53.1976 43.2492C52.2785 43.8617 52.0299 45.1034 52.6425 46.0226C53.255 46.9418 54.4967 47.1903 55.4159 46.5778L53.1976 43.2492ZM56.2536 46.0217C57.175 45.4126 57.4281 44.1718 56.8189 43.2504C56.2097 42.329 54.9689 42.0759 54.0475 42.685L56.2536 46.0217ZM60.0266 38.8438C59.0893 39.4283 58.8034 40.6619 59.3879 41.5992C59.9725 42.5364 61.2061 42.8223 62.1433 42.2378L60.0266 38.8438ZM62.9882 41.7131C63.9278 41.1323 64.2185 39.8998 63.6377 38.9602C63.0568 38.0207 61.8243 37.73 60.8848 38.3108L62.9882 41.7131ZM66.9924 34.6537C66.0365 35.2073 65.7105 36.4309 66.2641 37.3867C66.8178 38.3425 68.0414 38.6686 68.9972 38.1149L66.9924 34.6537ZM69.864 37.6154C70.8222 37.0658 71.1534 35.8436 70.6039 34.8854C70.0543 33.9273 68.8321 33.596 67.8739 34.1455L69.864 37.6154ZM74.0691 30.7175C73.0944 31.237 72.7254 32.4484 73.2449 33.4231C73.7645 34.3979 74.9759 34.7669 75.9506 34.2473L74.0691 30.7175ZM76.8409 33.7754C77.8181 33.2605 78.1928 32.0508 77.6778 31.0737C77.1628 30.0965 75.9532 29.7218 74.976 30.2368L76.8409 33.7754ZM81.3464 27.0152C80.3522 27.4966 79.9366 28.6928 80.418 29.6869C80.8994 30.6811 82.0956 31.0967 83.0897 30.6153L81.3464 27.0152ZM83.9844 30.1848C84.981 29.7084 85.4027 28.5144 84.9263 27.5178C84.4499 26.5213 83.2559 26.0996 82.2593 26.5759L83.9844 30.1848ZM88.7438 23.6209C87.7303 24.06 87.2645 25.2376 87.7036 26.2511C88.1426 27.2647 89.3202 27.7304 90.3338 27.2914L88.7438 23.6209ZM91.2522 26.8966C92.2682 26.4632 92.7405 25.2882 92.3071 24.2722C91.8737 23.2562 90.6988 22.7839 89.6828 23.2173L91.2522 26.8966ZM96.27 20.5619C95.2372 20.9537 94.7177 22.1086 95.1096 23.1413C95.5014 24.174 96.6563 24.6936 97.689 24.3017L96.27 20.5619ZM98.621 23.9513C99.6561 23.5657 100.183 22.4141 99.7971 21.379C99.4115 20.3439 98.2599 19.8173 97.2248 20.2029L98.621 23.9513ZM103.993 17.8509C102.942 18.1897 102.364 19.3166 102.703 20.3679C103.042 21.4192 104.169 21.9969 105.22 21.6581L103.993 17.8509ZM106.163 21.3577C107.216 21.026 107.801 19.9029 107.47 18.8494C107.138 17.7958 106.015 17.2107 104.961 17.5424L106.163 21.3577ZM111.829 15.5611C110.761 15.8408 110.121 16.9338 110.401 18.0024C110.68 19.0709 111.773 19.7104 112.842 19.4307L111.829 15.5611ZM113.806 19.1822C114.876 18.9104 115.524 17.8221 115.252 16.7515C114.98 15.6809 113.892 15.0334 112.821 15.3052L113.806 19.1822ZM119.774 13.7342C118.69 13.9483 117.986 15.0004 118.2 16.084C118.414 17.1676 119.466 17.8724 120.55 17.6583L119.774 13.7342ZM121.531 17.4685C122.616 17.2631 123.329 16.2168 123.124 15.1315C122.919 14.0462 121.872 13.3329 120.787 13.5382L121.531 17.4685ZM127.876 12.4089C126.78 12.5501 126.007 13.5527 126.148 14.6482C126.289 15.7437 127.292 16.5173 128.387 16.376L127.876 12.4089ZM129.365 16.2543C130.461 16.1225 131.244 15.1267 131.112 14.03C130.98 12.9333 129.984 12.1511 128.888 12.2828L129.365 16.2543ZM136.038 11.6514C134.936 11.7131 134.092 12.6572 134.153 13.76C134.215 14.8629 135.159 15.7069 136.262 15.6452L136.038 11.6514ZM137.249 15.5946C138.352 15.5433 139.205 14.6073 139.154 13.5039C139.103 12.4005 138.167 11.5476 137.063 11.5989L137.249 15.5946ZM144.236 11.5079C143.132 11.4839 142.217 12.3597 142.193 13.464C142.169 14.5683 143.045 15.483 144.149 15.507L144.236 11.5079ZM145.137 15.5334C146.241 15.5685 147.164 14.702 147.2 13.598C147.235 12.494 146.368 11.5706 145.264 11.5354L145.137 15.5334ZM152.44 12.0219C151.342 11.9071 150.358 12.7047 150.243 13.8033C150.128 14.9019 150.926 15.8855 152.025 16.0003L152.44 12.0219ZM153.004 16.1078C154.102 16.2342 155.094 15.4471 155.22 14.3498C155.347 13.2525 154.559 12.2605 153.462 12.1341L153.004 16.1078ZM160.568 13.2229C159.483 13.0145 158.435 13.725 158.226 14.8097C158.018 15.8944 158.728 16.9427 159.813 17.1511L160.568 13.2229ZM160.781 17.3425C161.863 17.5627 162.919 16.8637 163.139 15.7813C163.36 14.6989 162.661 13.6429 161.578 13.4227L160.781 17.3425ZM168.564 15.1244C167.501 14.822 166.395 15.4381 166.093 16.5005C165.79 17.5628 166.406 18.6692 167.469 18.9716L168.564 15.1244ZM168.412 19.2456C169.471 19.5596 170.584 18.9557 170.898 17.8967C171.212 16.8377 170.608 15.7247 169.549 15.4106L168.412 19.2456ZM176.397 17.732C175.365 17.3375 174.209 17.854 173.815 18.8857C173.42 19.9175 173.937 21.0736 174.968 21.4681L176.397 17.732ZM175.873 21.8198C176.901 22.2253 178.062 21.7211 178.468 20.6937C178.873 19.6663 178.369 18.5046 177.342 18.0991L175.873 21.8198ZM183.912 20.9817C182.918 20.5006 181.722 20.9167 181.241 21.911C180.76 22.9053 181.176 24.1014 182.17 24.5824L183.912 20.9817ZM183.064 25.0207C184.053 25.5123 185.254 25.1089 185.745 24.1198C186.237 23.1306 185.833 21.9302 184.844 21.4387L183.064 25.0207ZM191.136 24.8532C190.185 24.2922 188.959 24.6089 188.398 25.5604C187.837 26.512 188.153 27.7381 189.105 28.299L191.136 24.8532ZM189.949 28.8025C190.895 29.3729 192.124 29.0684 192.695 28.1225C193.265 27.1766 192.961 25.9474 192.015 25.377L189.949 28.8025ZM198.09 29.3318C197.185 28.6983 195.938 28.9182 195.305 29.8231C194.671 30.7279 194.891 31.975 195.796 32.6085L198.09 29.3318ZM196.583 33.1648C197.482 33.8065 198.731 33.5978 199.373 32.6988C200.014 31.7997 199.806 30.5507 198.907 29.909L196.583 33.1648ZM204.573 34.2293C203.716 33.5328 202.456 33.6632 201.759 34.5205C201.063 35.3778 201.193 36.6374 202.051 37.3339L204.573 34.2293ZM202.826 37.9693C203.677 38.6732 204.938 38.5538 205.642 37.7026C206.346 36.8514 206.226 35.5907 205.375 34.8868L202.826 37.9693ZM210.749 39.6018C209.94 38.85 208.675 38.8966 207.923 39.7059C207.171 40.5152 207.218 41.7806 208.027 42.5324L210.749 39.6018ZM208.74 43.2004C209.544 43.9584 210.81 43.9217 211.568 43.1183C212.326 42.3149 212.289 41.0491 211.486 40.291L208.74 43.2004ZM216.589 45.3728C215.827 44.5733 214.561 44.5429 213.762 45.305C212.962 46.0671 212.932 47.3331 213.694 48.1326L216.589 45.3728ZM214.396 48.8742C215.152 49.6793 216.418 49.719 217.223 48.9629C218.028 48.2067 218.068 46.941 217.311 46.1358L214.396 48.8742ZM222.008 51.3824C221.291 50.5425 220.028 50.4432 219.188 51.1606C218.348 51.8779 218.249 53.1404 218.966 53.9803L222.008 51.3824ZM219.606 54.7342C220.318 55.5788 221.58 55.6863 222.424 54.9744C223.269 54.2624 223.376 53.0007 222.664 52.1561L219.606 54.7342ZM227.213 57.8035C226.539 56.9284 225.283 56.7654 224.408 57.4394C223.533 58.1134 223.37 59.3692 224.044 60.2443L227.213 57.8035ZM224.665 61.0554C225.333 61.9345 226.588 62.1051 227.467 61.4364C228.347 60.7677 228.517 59.5129 227.848 58.6338L224.665 61.0554ZM231.959 64.2616C231.324 63.3574 230.077 63.1388 229.173 63.7732C228.268 64.4076 228.05 65.6549 228.684 66.5591L231.959 64.2616ZM229.253 67.3745C229.883 68.2821 231.129 68.5074 232.036 67.8778C232.944 67.2482 233.169 66.0021 232.54 65.0946L229.253 67.3745ZM236.564 71.1299C235.968 70.2001 234.731 69.9296 233.801 70.5258C232.871 71.1221 232.6 72.3592 233.197 73.289L236.564 71.1299ZM233.749 74.1557C234.341 75.0885 235.577 75.3651 236.509 74.7736C237.442 74.182 237.719 72.9463 237.127 72.0135L233.749 74.1557ZM240.749 77.9318C240.187 76.9808 238.961 76.6653 238.01 77.2271C237.059 77.7889 236.743 79.0153 237.305 79.9663L240.749 77.9318ZM237.808 80.8221C238.366 81.7756 239.591 82.0965 240.544 81.5388C241.498 80.9812 241.819 79.7562 241.261 78.8027L237.808 80.8221ZM244.805 85.0789C244.276 84.1092 243.061 83.7518 242.091 84.2806C241.122 84.8095 240.764 86.0244 241.293 86.9941L244.805 85.0789ZM241.786 87.9019C242.311 88.8739 243.524 89.2363 244.496 88.7115C245.468 88.1866 245.83 86.9733 245.306 86.0014L241.786 87.9019ZM248.542 92.1918C248.043 91.2063 246.84 90.8119 245.854 91.3108C244.869 91.8097 244.474 93.013 244.973 93.9985L248.542 92.1918ZM245.416 94.8778C245.912 95.8651 247.114 96.2639 248.101 95.7685C249.088 95.2732 249.487 94.0713 248.992 93.084L245.416 94.8778ZM252.104 99.4864C251.633 98.4872 250.442 98.0588 249.442 98.5295C248.443 99.0003 248.015 100.192 248.486 101.191L252.104 99.4864ZM248.919 102.116C249.387 103.117 250.577 103.549 251.578 103.082C252.578 102.615 253.011 101.424 252.544 100.424L248.919 102.116ZM255.49 106.928C255.046 105.917 253.866 105.457 252.854 105.902C251.843 106.346 251.384 107.526 251.828 108.537L255.49 106.928ZM252.218 109.427C252.659 110.44 253.838 110.903 254.85 110.461C255.863 110.02 256.326 108.841 255.884 107.829L252.218 109.427ZM258.614 114.273C258.193 113.251 257.025 112.764 256.003 113.185C254.982 113.605 254.495 114.774 254.915 115.795L258.614 114.273ZM255.296 116.725C255.714 117.747 256.881 118.238 257.904 117.82C258.926 117.403 259.417 116.235 258.999 115.213L255.296 116.725ZM261.665 121.932C261.268 120.901 260.11 120.388 259.08 120.785C258.049 121.183 257.536 122.34 257.933 123.371L261.665 121.932ZM258.305 124.341C258.7 125.372 259.856 125.889 260.888 125.494C261.92 125.1 262.436 123.943 262.041 122.912L258.305 124.341ZM264.463 129.416C264.087 128.377 262.94 127.841 261.901 128.217C260.863 128.594 260.326 129.741 260.703 130.779L264.463 129.416ZM261.037 131.705C261.411 132.744 262.557 133.284 263.596 132.91C264.636 132.536 265.175 131.39 264.801 130.35L261.037 131.705ZM267.137 137.014C266.78 135.969 265.643 135.411 264.598 135.767C263.552 136.124 262.994 137.261 263.351 138.306L267.137 137.014ZM263.678 139.267C264.032 140.313 265.167 140.874 266.214 140.519C267.26 140.165 267.82 139.03 267.466 137.983L263.678 139.267ZM269.744 144.889C269.406 143.838 268.28 143.259 267.228 143.597C266.177 143.935 265.598 145.061 265.936 146.113L269.744 144.889ZM266.254 147.105C266.592 148.157 267.718 148.736 268.77 148.398C269.821 148.061 270.4 146.934 270.063 145.883L266.254 147.105ZM272.3 152.689C271.948 151.642 270.813 151.079 269.767 151.431C268.72 151.783 268.157 152.918 268.509 153.965L272.3 152.689ZM268.836 154.932C269.19 155.978 270.325 156.539 271.372 156.184C272.418 155.83 272.979 154.695 272.624 153.648L268.836 154.932ZM274.923 160.278C274.554 159.237 273.41 158.693 272.369 159.062C271.328 159.431 270.784 160.575 271.153 161.616L274.923 160.278ZM271.489 162.558C271.86 163.598 273.005 164.14 274.045 163.769C275.085 163.397 275.627 162.253 275.256 161.213L271.489 162.558ZM277.614 167.667C277.228 166.633 276.075 166.108 275.041 166.494C274.006 166.881 273.481 168.033 273.868 169.068L277.614 167.667ZM274.212 169.986C274.601 171.02 275.754 171.542 276.788 171.153C277.822 170.764 278.345 169.611 277.956 168.577L274.212 169.986ZM280.454 175.064C280.049 174.037 278.888 173.532 277.86 173.937C276.832 174.342 276.328 175.503 276.733 176.531L280.454 175.064ZM277.113 177.491C277.52 178.518 278.683 179.02 279.709 178.612C280.736 178.205 281.238 177.042 280.83 176.016L277.113 177.491ZM283.497 182.576C283.073 181.557 281.902 181.074 280.882 181.499C279.863 181.923 279.38 183.094 279.805 184.114L283.497 182.576ZM280.194 185.046C280.621 186.065 281.793 186.544 282.812 186.117C283.831 185.69 284.31 184.518 283.883 183.5L280.194 185.046ZM286.615 189.864C286.171 188.853 284.991 188.394 283.979 188.838C282.968 189.282 282.509 190.462 282.953 191.474L286.615 189.864ZM283.352 192.378C283.799 193.388 284.98 193.845 285.99 193.398C287 192.951 287.457 191.77 287.01 190.76L283.352 192.378ZM289.823 196.97C289.359 195.968 288.169 195.532 287.167 195.997C286.165 196.462 285.73 197.651 286.195 198.653L289.823 196.97ZM286.633 199.596C287.101 200.596 288.291 201.029 289.292 200.561C290.293 200.093 290.725 198.903 290.257 197.902L286.633 199.596ZM293.331 204.319C292.844 203.328 291.646 202.919 290.654 203.406C289.663 203.893 289.254 205.091 289.741 206.082L293.331 204.319ZM290.19 206.994C290.679 207.984 291.879 208.389 292.869 207.899C293.859 207.41 294.265 206.21 293.775 205.22L290.19 206.994ZM296.918 211.417C296.408 210.437 295.201 210.056 294.221 210.565C293.24 211.075 292.859 212.282 293.368 213.262L296.918 211.417ZM293.828 214.142C294.34 215.121 295.548 215.499 296.527 214.987C297.506 214.474 297.884 213.266 297.371 212.287L293.828 214.142ZM300.581 218.269C300.049 217.301 298.833 216.948 297.865 217.481C296.897 218.013 296.544 219.229 297.077 220.197L300.581 218.269ZM297.58 221.108C298.115 222.075 299.333 222.424 300.299 221.888C301.265 221.353 301.614 220.135 301.079 219.169L297.58 221.108ZM304.595 225.348C304.038 224.394 302.813 224.073 301.859 224.63C300.905 225.188 300.584 226.413 301.142 227.366L304.595 225.348ZM301.656 228.243C302.216 229.195 303.442 229.512 304.394 228.952C305.346 228.391 305.663 227.165 305.103 226.213L301.656 228.243ZM308.691 232.149C308.109 231.21 306.876 230.922 305.937 231.505C304.999 232.087 304.71 233.32 305.293 234.259L308.691 232.149ZM305.818 235.101C306.404 236.037 307.638 236.322 308.574 235.736C309.51 235.15 309.795 233.916 309.209 232.98L305.818 235.101ZM312.908 238.737C312.299 237.815 311.059 237.561 310.137 238.169C309.215 238.778 308.961 240.018 309.569 240.94L312.908 238.737ZM310.142 241.805C310.754 242.724 311.996 242.974 312.915 242.362C313.835 241.75 314.084 240.509 313.473 239.589L310.142 241.805ZM317.463 245.419C316.827 244.515 315.579 244.299 314.676 244.935C313.773 245.571 313.556 246.819 314.192 247.722L317.463 245.419ZM314.776 248.548C315.416 249.449 316.664 249.66 317.565 249.021C318.466 248.381 318.677 247.133 318.038 246.232L314.776 248.548ZM322.102 251.795C321.438 250.912 320.184 250.734 319.301 251.398C318.419 252.062 318.241 253.316 318.905 254.199L322.102 251.795ZM319.5 254.987C320.167 255.867 321.422 256.04 322.302 255.373C323.182 254.705 323.355 253.451 322.688 252.571L319.5 254.987ZM326.967 258.05C326.274 257.19 325.015 257.053 324.155 257.746C323.294 258.438 323.158 259.697 323.85 260.558L326.967 258.05ZM324.496 261.357C325.192 262.215 326.452 262.346 327.31 261.649C328.167 260.953 328.298 259.694 327.602 258.836L324.496 261.357ZM332.086 264.191C331.364 263.355 330.101 263.263 329.265 263.985C328.429 264.707 328.337 265.97 329.059 266.806L332.086 264.191ZM329.716 267.564C330.442 268.396 331.706 268.483 332.538 267.757C333.371 267.031 333.457 265.768 332.732 264.935L329.716 267.564ZM337.289 270.002C336.537 269.192 335.272 269.145 334.462 269.897C333.653 270.648 333.606 271.914 334.358 272.723L337.289 270.002ZM335.05 273.466C335.805 274.271 337.071 274.312 337.877 273.557C338.683 272.802 338.724 271.536 337.968 270.73L335.05 273.466ZM342.876 275.792C342.094 275.012 340.828 275.015 340.048 275.797C339.268 276.579 339.271 277.846 340.053 278.625L342.876 275.792ZM340.773 279.34C341.56 280.116 342.826 280.107 343.602 279.321C344.378 278.535 344.369 277.269 343.583 276.493L340.773 279.34ZM348.565 281.242C347.752 280.494 346.487 280.546 345.739 281.359C344.991 282.172 345.044 283.437 345.856 284.185L348.565 281.242ZM346.588 284.855C347.405 285.599 348.669 285.54 349.413 284.723C350.157 283.907 350.098 282.642 349.282 281.898L346.588 284.855ZM354.514 286.493C353.671 285.78 352.409 285.885 351.696 286.728C350.982 287.572 351.088 288.833 351.931 289.547L354.514 286.493ZM352.713 290.205C353.561 290.914 354.822 290.802 355.531 289.954C356.239 289.107 356.127 287.846 355.28 287.137L352.713 290.205ZM360.676 291.481C359.802 290.805 358.546 290.965 357.87 291.838C357.194 292.712 357.354 293.968 358.228 294.644L360.676 291.481ZM359.021 295.254C359.898 295.926 361.153 295.759 361.825 294.881C362.496 294.004 362.329 292.749 361.452 292.078L359.021 295.254ZM367.011 296.162C366.108 295.525 364.86 295.741 364.224 296.644C363.588 297.547 363.804 298.795 364.707 299.431L367.011 296.162ZM365.547 300.02C366.454 300.651 367.7 300.427 368.331 299.521C368.962 298.614 368.739 297.368 367.832 296.737L365.547 300.02ZM373.615 300.589C372.683 299.996 371.447 300.27 370.854 301.202C370.26 302.133 370.534 303.369 371.466 303.963L373.615 300.589ZM372.317 304.501C373.252 305.089 374.486 304.808 375.074 303.873C375.662 302.937 375.381 301.703 374.446 301.115L372.317 304.501ZM380.338 304.652C379.379 304.103 378.157 304.435 377.609 305.394C377.06 306.353 377.393 307.575 378.351 308.123L380.338 304.652ZM379.244 308.63C380.206 309.173 381.425 308.833 381.968 307.871C382.511 306.909 382.171 305.689 381.209 305.146L379.244 308.63ZM387.337 308.432C386.352 307.931 385.148 308.323 384.647 309.308C384.146 310.292 384.538 311.497 385.523 311.997L387.337 308.432ZM386.424 312.453C387.412 312.947 388.613 312.548 389.108 311.561C389.603 310.573 389.204 309.371 388.216 308.877L386.424 312.453ZM394.423 311.822C393.415 311.37 392.232 311.821 391.78 312.829C391.328 313.837 391.779 315.02 392.787 315.472L394.423 311.822ZM393.723 315.888C394.734 316.333 395.915 315.875 396.36 314.864C396.806 313.854 396.347 312.673 395.336 312.228L393.723 315.888ZM401.754 314.889C400.725 314.488 399.566 314.998 399.165 316.028C398.765 317.057 399.274 318.216 400.304 318.617L401.754 314.889ZM401.248 318.98C402.28 319.375 403.435 318.857 403.829 317.826C404.224 316.794 403.706 315.638 402.675 315.244L401.248 318.98ZM409.155 317.557C408.107 317.208 406.974 317.776 406.626 318.824C406.278 319.872 406.845 321.004 407.893 321.353L409.155 317.557ZM408.863 321.672C409.914 322.014 411.042 321.439 411.384 320.389C411.726 319.338 411.151 318.21 410.101 317.868L408.863 321.672ZM416.745 319.869C415.681 319.574 414.579 320.197 414.284 321.262C413.989 322.326 414.612 323.428 415.677 323.724L416.745 319.869ZM416.653 323.991C417.719 324.279 418.817 323.649 419.105 322.582C419.394 321.516 418.763 320.418 417.697 320.13L416.653 323.991ZM424.39 321.784C423.313 321.543 422.243 322.22 422.001 323.298C421.759 324.376 422.437 325.446 423.515 325.688L424.39 321.784ZM424.509 325.907C425.589 326.142 426.654 325.458 426.889 324.379C427.124 323.299 426.44 322.234 425.36 321.999L424.509 325.907ZM432.164 323.327C431.075 323.138 430.04 323.868 429.852 324.957C429.664 326.045 430.394 327.08 431.482 327.268L432.164 323.327ZM432.48 327.437C433.57 327.619 434.6 326.883 434.782 325.793C434.963 324.704 434.227 323.673 433.137 323.492L432.48 327.437ZM439.974 324.482C438.878 324.347 437.88 325.126 437.745 326.222C437.609 327.318 438.389 328.317 439.485 328.452L439.974 324.482ZM440.493 328.573C441.59 328.702 442.584 327.917 442.712 326.82C442.841 325.723 442.056 324.729 440.959 324.6L440.493 328.573ZM447.855 325.264C446.754 325.181 445.794 326.006 445.711 327.108C445.628 328.209 446.454 329.169 447.555 329.252L447.855 325.264ZM448.564 329.325C449.666 329.402 450.621 328.571 450.698 327.469C450.774 326.367 449.943 325.412 448.841 325.335L448.564 329.325ZM455.753 325.674C454.649 325.642 453.728 326.511 453.696 327.615C453.664 328.72 454.533 329.641 455.637 329.672L455.753 325.674ZM456.65 329.699C457.754 329.724 458.67 328.85 458.696 327.746C458.722 326.641 457.847 325.726 456.743 325.7L456.65 329.699ZM463.672 325.724C462.568 325.742 461.687 326.651 461.705 327.756C461.722 328.86 462.632 329.741 463.737 329.723L463.672 325.724ZM464.748 329.704C465.852 329.68 466.728 328.766 466.704 327.661C466.68 326.557 465.766 325.681 464.662 325.705L464.748 329.704ZM471.584 325.423C470.481 325.489 469.641 326.436 469.707 327.538C469.773 328.641 470.72 329.481 471.823 329.415L471.584 325.423ZM472.833 329.352C473.935 329.281 474.77 328.329 474.698 327.227C474.626 326.124 473.675 325.289 472.572 325.361L472.833 329.352ZM479.481 324.782C478.383 324.894 477.583 325.876 477.695 326.975C477.808 328.074 478.79 328.874 479.888 328.761L479.481 324.782ZM480.894 328.656C481.993 328.538 482.787 327.552 482.669 326.453C482.551 325.355 481.565 324.56 480.467 324.679L480.894 328.656ZM487.347 323.814C486.254 323.971 485.495 324.985 485.652 326.078C485.809 327.171 486.823 327.93 487.916 327.773L487.347 323.814ZM488.916 327.627C490.009 327.465 490.763 326.447 490.6 325.355C490.438 324.262 489.42 323.508 488.328 323.671L488.916 327.627ZM495.172 322.531C494.086 322.731 493.367 323.774 493.567 324.86C493.767 325.947 494.81 326.665 495.896 326.465L495.172 322.531ZM496.89 326.28C497.975 326.075 498.689 325.029 498.484 323.943C498.279 322.858 497.232 322.144 496.147 322.35L496.89 326.28ZM502.944 320.947C501.866 321.188 501.188 322.257 501.429 323.335C501.67 324.413 502.739 325.091 503.817 324.85L502.944 320.947ZM504.802 324.628C505.879 324.382 506.553 323.309 506.306 322.232C506.06 321.156 504.988 320.482 503.911 320.728L504.802 324.628ZM510.655 319.073C509.586 319.353 508.947 320.447 509.228 321.515C509.508 322.583 510.602 323.222 511.67 322.942L510.655 319.073ZM512.647 322.683C513.714 322.398 514.348 321.302 514.063 320.234C513.777 319.167 512.681 318.533 511.614 318.819L512.647 322.683ZM518.295 316.921C517.237 317.239 516.638 318.355 516.956 319.413C517.274 320.47 518.389 321.07 519.447 320.752L518.295 316.921ZM520.413 320.459C521.47 320.136 522.065 319.019 521.742 317.962C521.419 316.906 520.301 316.311 519.245 316.634L520.413 320.459ZM525.858 314.505C524.812 314.859 524.251 315.994 524.605 317.04C524.959 318.086 526.094 318.648 527.141 318.293L525.858 314.505ZM528.096 317.968C529.141 317.609 529.697 316.472 529.339 315.427C528.98 314.382 527.843 313.826 526.798 314.184L528.096 317.968ZM533.339 311.833C532.305 312.222 531.782 313.375 532.171 314.409C532.559 315.443 533.713 315.966 534.747 315.577L533.339 311.833ZM535.691 315.22C536.723 314.827 537.241 313.672 536.849 312.64C536.456 311.607 535.3 311.089 534.268 311.482L535.691 315.22ZM540.728 308.918C539.707 309.34 539.221 310.51 539.643 311.531C540.065 312.551 541.234 313.037 542.255 312.615L540.728 308.918ZM543.186 312.228C544.205 311.803 544.686 310.631 544.261 309.612C543.835 308.593 542.663 308.112 541.644 308.538L543.186 312.228ZM548.026 305.768C547.019 306.221 546.57 307.405 547.024 308.412C547.478 309.42 548.662 309.868 549.669 309.415L548.026 305.768ZM550.588 308.999C551.594 308.541 552.038 307.355 551.58 306.35C551.123 305.344 549.937 304.9 548.932 305.358L550.588 308.999ZM555.217 302.395C554.225 302.879 553.812 304.077 554.296 305.069C554.781 306.062 555.978 306.475 556.971 305.99L555.217 302.395ZM557.875 305.547C558.866 305.059 559.273 303.861 558.786 302.87C558.298 301.879 557.099 301.471 556.108 301.959L557.875 305.547ZM562.316 298.8C561.338 299.314 560.962 300.523 561.476 301.501C561.989 302.478 563.199 302.854 564.176 302.341L562.316 298.8ZM565.069 301.87C566.044 301.352 566.416 300.142 565.899 299.166C565.381 298.19 564.171 297.818 563.195 298.336L565.069 301.87ZM569.288 295.004C568.326 295.546 567.985 296.766 568.528 297.728C569.07 298.69 570.29 299.031 571.252 298.489L569.288 295.004ZM572.129 297.992C573.089 297.447 573.425 296.226 572.879 295.265C572.333 294.305 571.112 293.969 570.152 294.515L572.129 297.992ZM576.17 290.992C575.224 291.562 574.919 292.791 575.489 293.737C576.059 294.683 577.289 294.988 578.235 294.418L576.17 290.992ZM579.097 293.896C580.041 293.322 580.341 292.092 579.768 291.148C579.194 290.204 577.964 289.904 577.02 290.477L579.097 293.896ZM582.904 286.8C581.974 287.397 581.705 288.635 582.302 289.564C582.899 290.493 584.137 290.763 585.066 290.166L582.904 286.8ZM585.918 289.616C586.846 289.015 587.11 287.777 586.51 286.85C585.909 285.923 584.671 285.658 583.744 286.258L585.918 289.616ZM589.551 282.393C588.639 283.017 588.405 284.261 589.029 285.173C589.652 286.085 590.897 286.318 591.809 285.695L589.551 282.393ZM592.639 285.125C593.548 284.498 593.778 283.253 593.151 282.343C592.524 281.434 591.278 281.204 590.369 281.831L592.639 285.125ZM596.034 277.821C595.141 278.471 594.943 279.721 595.592 280.615C596.242 281.508 597.493 281.706 598.386 281.057L596.034 277.821ZM599.206 280.458C600.097 279.806 600.291 278.554 599.638 277.663C598.985 276.772 597.734 276.579 596.843 277.231L599.206 280.458ZM602.414 273.042C601.54 273.717 601.379 274.973 602.053 275.847C602.728 276.721 603.984 276.883 604.859 276.208L602.414 273.042ZM605.653 275.592C606.525 274.914 606.682 273.658 606.004 272.786C605.326 271.914 604.07 271.757 603.198 272.435L605.653 275.592ZM608.629 268.099C607.774 268.799 607.649 270.059 608.35 270.913C609.05 271.768 610.31 271.893 611.164 271.192L608.629 268.099ZM611.948 270.547C612.8 269.844 612.92 268.584 612.217 267.732C611.513 266.88 610.253 266.76 609.401 267.463L611.948 270.547ZM614.708 262.964C613.875 263.689 613.788 264.952 614.513 265.785C615.238 266.618 616.501 266.706 617.335 265.98L614.708 262.964ZM618.089 265.321C618.92 264.593 619.002 263.329 618.274 262.499C617.545 261.668 616.282 261.585 615.451 262.314L618.089 265.321ZM620.627 257.651C619.816 258.401 619.767 259.666 620.518 260.477C621.268 261.288 622.533 261.336 623.344 260.586L620.627 257.651ZM624.087 259.896C624.894 259.142 624.938 257.877 624.185 257.069C623.431 256.261 622.166 256.218 621.358 256.971L624.087 259.896ZM626.36 252.175C625.573 252.95 625.564 254.217 626.34 255.003C627.115 255.79 628.381 255.799 629.168 255.023L626.36 252.175ZM629.877 254.322C630.66 253.543 630.664 252.277 629.886 251.493C629.107 250.71 627.841 250.706 627.057 251.484L629.877 254.322ZM631.946 246.484C631.185 247.285 631.218 248.551 632.019 249.312C632.82 250.072 634.086 250.04 634.846 249.239L631.946 246.484ZM635.541 248.505C636.298 247.7 636.26 246.435 635.455 245.677C634.651 244.92 633.386 244.958 632.628 245.762L635.541 248.505ZM637.281 240.671C636.548 241.498 636.624 242.762 637.451 243.495C638.277 244.227 639.541 244.151 640.274 243.324L637.281 240.671ZM640.953 242.554C641.682 241.724 641.6 240.461 640.77 239.732C639.941 239.003 638.677 239.085 637.948 239.915L640.953 242.554ZM642.467 234.599C641.766 235.452 641.888 236.713 642.742 237.414C643.595 238.116 644.855 237.993 645.557 237.14L642.467 234.599ZM646.192 236.363C646.89 235.507 646.761 234.247 645.904 233.55C645.048 232.852 643.788 232.981 643.091 233.837L646.192 236.363ZM647.38 228.382C646.713 229.262 646.885 230.517 647.765 231.184C648.646 231.851 649.9 231.679 650.568 230.799L647.38 228.382ZM651.182 229.984C651.845 229.1 651.666 227.847 650.782 227.184C649.899 226.521 648.645 226.7 647.982 227.584L651.182 229.984ZM652.015 221.994C651.386 222.902 651.612 224.148 652.52 224.777C653.428 225.406 654.674 225.18 655.303 224.272L652.015 221.994ZM655.865 223.456C656.489 222.544 656.256 221.3 655.345 220.676C654.433 220.052 653.189 220.285 652.565 221.196L655.865 223.456ZM656.395 215.344C655.81 216.281 656.096 217.515 657.033 218.1C657.969 218.685 659.203 218.4 659.788 217.463L656.395 215.344ZM660.32 216.606C660.899 215.665 660.606 214.433 659.665 213.854C658.725 213.275 657.493 213.568 656.913 214.509L660.32 216.606ZM660.397 208.549C659.862 209.515 660.213 210.732 661.179 211.267C662.146 211.801 663.363 211.451 663.897 210.484L660.397 208.549ZM664.391 209.583C664.919 208.612 664.56 207.398 663.589 206.871C662.619 206.343 661.404 206.702 660.877 207.673L664.391 209.583ZM663.986 201.579C663.511 202.576 663.934 203.77 664.931 204.245C665.928 204.72 667.122 204.297 667.597 203.3L663.986 201.579ZM668.02 202.407C668.493 201.409 668.067 200.216 667.068 199.743C666.07 199.271 664.878 199.697 664.405 200.695L668.02 202.407ZM667.466 194.411C666.971 195.399 667.371 196.6 668.359 197.095C669.346 197.589 670.548 197.19 671.042 196.202L667.466 194.411ZM671.485 195.322C671.982 194.336 671.586 193.133 670.6 192.636C669.614 192.138 668.411 192.534 667.914 193.52L671.485 195.322ZM671.13 187.317C670.611 188.292 670.98 189.503 671.955 190.022C672.93 190.541 674.142 190.172 674.661 189.197L671.13 187.317ZM675.125 188.327C675.648 187.354 675.282 186.142 674.308 185.619C673.335 185.097 672.123 185.463 671.601 186.436L675.125 188.327ZM674.969 180.319C674.426 181.281 674.765 182.501 675.726 183.044C676.688 183.588 677.908 183.248 678.452 182.287L674.969 180.319ZM678.938 181.428C679.485 180.468 679.149 179.247 678.189 178.701C677.229 178.154 676.008 178.49 675.462 179.45L678.938 181.428ZM678.983 173.417C678.416 174.365 678.724 175.593 679.672 176.16C680.62 176.728 681.848 176.419 682.415 175.471L678.983 173.417ZM682.922 174.628C683.492 173.682 683.187 172.452 682.241 171.882C681.295 171.312 680.066 171.617 679.496 172.563L682.922 174.628ZM683.169 166.615C682.579 167.549 682.856 168.784 683.79 169.375C684.723 169.966 685.959 169.688 686.549 168.755L683.169 166.615ZM687.077 167.923C687.671 166.992 687.397 165.755 686.465 165.162C685.534 164.568 684.298 164.842 683.704 165.773L687.077 167.923ZM687.523 159.923C686.909 160.841 687.156 162.084 688.074 162.697C688.992 163.311 690.234 163.065 690.848 162.146L687.523 159.923ZM691.398 161.327C692.014 160.411 691.771 159.168 690.855 158.551C689.939 157.935 688.696 158.178 688.079 159.094L691.398 161.327ZM692.041 153.345C691.404 154.247 691.62 155.495 692.522 156.132C693.425 156.769 694.673 156.553 695.31 155.651L692.041 153.345ZM695.88 154.845C696.519 153.944 696.308 152.696 695.407 152.056C694.507 151.417 693.258 151.628 692.619 152.529L695.88 154.845ZM696.727 146.877C696.068 147.763 696.252 149.016 697.138 149.675C698.024 150.335 699.277 150.151 699.936 149.264L696.727 146.877ZM700.525 148.476C701.187 147.592 701.007 146.338 700.123 145.676C699.239 145.014 697.985 145.194 697.323 146.078L700.525 148.476ZM701.575 140.529C700.893 141.399 701.046 142.656 701.915 143.337C702.784 144.019 704.041 143.866 704.723 142.997L701.575 140.529ZM705.332 142.223C706.016 141.356 705.868 140.098 705.001 139.414C704.134 138.73 702.876 138.878 702.192 139.745L705.332 142.223ZM706.58 134.309C705.877 135.161 705.997 136.421 706.849 137.125C707.7 137.828 708.961 137.708 709.664 136.857L706.58 134.309ZM710.294 136.097C711 135.248 710.884 133.987 710.034 133.281C709.185 132.574 707.924 132.691 707.218 133.54L710.294 136.097ZM711.741 128.222C711.016 129.055 711.104 130.318 711.937 131.043C712.77 131.768 714.034 131.681 714.759 130.847L711.741 128.222ZM715.408 130.103C716.136 129.272 716.052 128.009 715.221 127.281C714.39 126.553 713.127 126.637 712.399 127.468L715.408 130.103ZM717.063 122.262C716.317 123.076 716.372 124.342 717.186 125.088C718 125.834 719.265 125.779 720.012 124.965L717.063 122.262ZM720.677 124.241C721.426 123.429 721.376 122.164 720.564 121.415C719.752 120.666 718.487 120.717 717.738 121.529L720.677 124.241ZM722.537 116.444C721.77 117.238 721.792 118.505 722.586 119.272C723.381 120.039 724.647 120.017 725.414 119.223L722.537 116.444ZM726.1 118.516C726.87 117.724 726.852 116.457 726.06 115.687C725.268 114.917 724.002 114.935 723.232 115.727L726.1 118.516ZM728.16 110.774C727.372 111.548 727.361 112.814 728.135 113.602C728.909 114.39 730.175 114.401 730.963 113.628L728.16 110.774ZM731.668 112.938C732.458 112.166 732.474 110.9 731.703 110.11C730.931 109.319 729.665 109.303 728.875 110.075L731.668 112.938ZM733.93 105.257C733.121 106.009 733.076 107.275 733.829 108.083C734.581 108.892 735.847 108.937 736.655 108.185L733.93 105.257ZM737.379 107.513C738.19 106.763 738.24 105.498 737.49 104.687C736.74 103.876 735.475 103.826 734.664 104.576L737.379 107.513ZM739.853 99.8909C739.024 100.621 738.944 101.885 739.675 102.714C740.405 103.542 741.669 103.622 742.498 102.892L739.853 99.8909ZM743.236 102.243C744.067 101.515 744.151 100.252 743.423 99.4206C742.696 98.5895 741.432 98.5057 740.601 99.2332L743.236 102.243ZM745.92 94.6888C745.071 95.3961 744.957 96.6573 745.664 97.5057C746.372 98.354 747.633 98.4683 748.481 97.761L745.92 94.6888ZM749.238 97.1321C750.089 96.4276 750.208 95.1669 749.503 94.3161C748.799 93.4653 747.538 93.3466 746.687 94.051L749.238 97.1321ZM752.127 89.6584C751.259 90.3418 751.109 91.5993 751.793 92.4671C752.476 93.3349 753.733 93.4844 754.601 92.801L752.127 89.6584ZM755.377 92.1927C756.247 91.5124 756.401 90.2554 755.72 89.3852C755.04 88.515 753.783 88.3611 752.913 89.0414L755.377 92.1927ZM758.471 84.8065C757.584 85.465 757.399 86.7177 758.057 87.6045C758.716 88.4914 759.968 88.6766 760.855 88.0181L758.471 84.8065ZM761.648 87.4313C762.538 86.7761 762.727 85.524 762.072 84.6348C761.417 83.7456 760.165 83.5559 759.276 84.2112L761.648 87.4313ZM764.956 80.1355C764.05 80.768 763.829 82.0148 764.461 82.9204C765.094 83.8259 766.34 84.0473 767.246 83.4148L764.956 80.1355ZM768.052 82.8541C768.96 82.225 769.186 80.9789 768.556 80.0711C767.927 79.1632 766.681 78.9373 765.773 79.5665L768.052 82.8541ZM771.579 75.6532C770.655 76.2587 770.397 77.4984 771.002 78.4223C771.608 79.3461 772.847 79.6042 773.771 78.9987L771.579 75.6532ZM774.594 78.4615C775.52 77.8595 775.783 76.6207 775.181 75.6946C774.579 74.7685 773.34 74.5058 772.414 75.1078L774.594 78.4615ZM778.331 71.3716C777.389 71.949 777.094 73.1804 777.671 74.122C778.248 75.0637 779.48 75.3591 780.422 74.7817L778.331 71.3716ZM781.261 74.2689C782.205 73.6952 782.505 72.4649 781.932 71.5211C781.358 70.5772 780.128 70.2771 779.184 70.8509L781.261 74.2689ZM785.209 67.2987C784.25 67.8467 783.917 69.0685 784.465 70.0275C785.013 70.9865 786.234 71.3196 787.193 70.7715L785.209 67.2987ZM788.05 70.2843C789.011 69.74 789.349 68.5196 788.805 67.5584C788.26 66.5973 787.04 66.2594 786.079 66.8037L788.05 70.2843ZM792.209 63.4425C791.233 63.9601 790.862 65.1707 791.379 66.1465C791.897 67.1223 793.107 67.4937 794.083 66.9761L792.209 63.4425ZM794.956 66.5156C795.934 66.0019 796.31 64.7927 795.796 63.8149C795.282 62.837 794.073 62.4608 793.095 62.9745L794.956 66.5156ZM799.337 59.8068C798.345 60.2926 797.935 61.4906 798.421 62.4826C798.907 63.4746 800.105 63.8849 801.097 63.399L799.337 59.8068ZM801.979 62.9692C802.973 62.4874 803.388 61.2911 802.906 60.2971C802.424 59.3032 801.228 58.888 800.234 59.3698L801.979 62.9692ZM806.581 56.4054C805.574 56.8582 805.124 58.042 805.577 59.0495C806.03 60.057 807.214 60.5066 808.221 60.0538L806.581 56.4054ZM809.118 59.653C810.127 59.2044 810.582 58.0225 810.133 57.0131C809.685 56.0037 808.503 55.5491 807.493 55.9977L809.118 59.653ZM813.934 53.2485C812.912 53.667 812.422 54.8349 812.841 55.8571C813.259 56.8794 814.427 57.3688 815.45 56.9504L813.934 53.2485ZM816.36 56.5798C817.384 56.1658 817.879 55 817.465 53.9759C817.051 52.9519 815.885 52.4574 814.861 52.8715L816.36 56.5798ZM821.39 50.3457C820.354 50.7284 819.825 51.8786 820.207 52.9148C820.59 53.9509 821.74 54.4806 822.776 54.0978L821.39 50.3457ZM823.7 53.7589C824.738 53.3807 825.273 52.2328 824.895 51.195C824.516 50.1572 823.369 49.6224 822.331 50.0006L823.7 53.7589ZM828.944 47.7064C827.895 48.0521 827.325 49.1827 827.67 50.2318C828.016 51.2809 829.147 51.8512 830.196 51.5055L828.944 47.7064ZM831.132 51.1994C832.182 50.8585 832.758 49.7304 832.417 48.6798C832.076 47.6292 830.948 47.0538 829.897 47.3947L831.132 51.1994ZM836.594 45.3388C835.533 45.646 834.922 46.7551 835.229 47.8161C835.537 48.8771 836.646 49.4882 837.707 49.1811L836.594 45.3388ZM838.649 48.9106C839.712 48.6083 840.328 47.502 840.025 46.4396C839.723 45.3772 838.617 44.761 837.555 45.0633L838.649 48.9106ZM844.329 43.2548C843.257 43.5221 842.605 44.6076 842.873 45.6793C843.14 46.7511 844.225 47.4032 845.297 47.1359L844.329 43.2548ZM846.25 46.9007C847.323 46.6384 847.98 45.556 847.718 44.483C847.456 43.4101 846.373 42.7528 845.3 43.015L846.25 46.9007ZM852.137 41.4648C851.056 41.6909 850.363 42.7507 850.589 43.8318C850.815 44.913 851.875 45.6062 852.956 45.3801L852.137 41.4648ZM853.917 45.1815C855 44.9607 855.698 43.9043 855.477 42.822C855.256 41.7397 854.2 41.0414 853.118 41.2623L853.917 45.1815ZM860.009 39.9784C858.92 40.162 858.186 41.1938 858.369 42.283C858.553 43.3722 859.585 44.1064 860.674 43.9228L860.009 39.9784ZM861.643 43.762C862.733 43.5838 863.472 42.5557 863.294 41.4656C863.116 40.3755 862.088 39.6362 860.998 39.8144L861.643 43.762ZM867.935 38.8047C866.839 38.9445 866.065 39.9461 866.204 41.0418C866.344 42.1375 867.346 42.9123 868.441 42.7725L867.935 38.8047ZM869.416 42.6506C870.512 42.5163 871.292 41.5187 871.158 40.4223C871.024 39.3259 870.026 38.546 868.93 38.6803L869.416 42.6506ZM875.904 37.9521C874.804 38.0471 873.989 39.0162 874.084 40.1167C874.179 41.2172 875.148 42.0323 876.248 41.9373L875.904 37.9521ZM877.226 41.8555C878.327 41.7662 879.148 40.8013 879.058 39.7004C878.969 38.5994 878.004 37.7793 876.903 37.8686L877.226 41.8555ZM883.905 37.4288C882.801 37.4779 881.946 38.4122 881.996 39.5157C882.045 40.6192 882.979 41.4739 884.082 41.4248L883.905 37.4288ZM885.063 41.3838C886.167 41.3405 887.026 40.4107 886.983 39.307C886.94 38.2033 886.01 37.3436 884.906 37.3869L885.063 41.3838ZM891.92 37.2416C890.815 37.244 889.922 38.1413 889.924 39.2459C889.927 40.3505 890.824 41.244 891.928 41.2416L891.92 37.2416ZM892.91 41.2422C894.014 41.2457 894.913 40.3531 894.916 39.2486C894.92 38.144 894.027 37.2457 892.923 37.2422L892.91 41.2422ZM899.936 37.3961C898.833 37.3511 897.902 38.2093 897.857 39.313C897.812 40.4166 898.67 41.3478 899.773 41.3928L899.936 37.3961ZM900.754 41.4354C901.857 41.4864 902.793 40.6333 902.844 39.5299C902.895 38.4265 902.042 37.4907 900.938 37.4397L900.754 41.4354ZM907.941 37.8965C906.84 37.8036 905.872 38.6206 905.78 39.7213C905.687 40.8219 906.504 41.7895 907.604 41.8823L907.941 37.8965ZM908.581 41.9674C909.681 42.0662 910.653 41.2545 910.752 40.1544C910.851 39.0542 910.039 38.0823 908.939 37.9834L908.581 41.9674ZM915.918 38.7454C914.823 38.6045 913.82 39.3784 913.68 40.4739C913.539 41.5695 914.313 42.5718 915.408 42.7127L915.918 38.7454ZM916.379 42.8403C917.473 42.9872 918.48 42.2188 918.627 41.1241C918.774 40.0293 918.005 39.0227 916.911 38.8758L916.379 42.8403ZM923.852 39.9437C922.764 39.7548 921.729 40.4838 921.54 41.5721C921.351 42.6604 922.08 43.6958 923.168 43.8848L923.852 39.9437ZM-46.3872 147.183C-46.2904 147.051 -46.1935 146.919 -46.0963 146.787L-49.3194 144.418C-49.4174 144.551 -49.5152 144.684 -49.6128 144.817L-46.3872 147.183ZM-41.9235 141.199C-41.7203 140.931 -41.5166 140.663 -41.3122 140.395L-44.4937 137.971C-44.6999 138.241 -44.9054 138.511 -45.1102 138.781L-41.9235 141.199ZM-37.0141 134.84C-36.8089 134.579 -36.6031 134.318 -36.3968 134.056L-39.5371 131.579C-39.7452 131.842 -39.9527 132.106 -40.1596 132.369L-37.0141 134.84ZM-31.984 128.546C-31.7731 128.287 -31.5617 128.027 -31.3498 127.767L-34.4487 125.238C-34.6623 125.5 -34.8754 125.762 -35.088 126.023L-31.984 128.546ZM-26.8931 122.386C-26.6775 122.129 -26.4614 121.872 -26.2448 121.616L-29.302 119.036C-29.5204 119.295 -29.7382 119.554 -29.9556 119.813L-26.8931 122.386ZM-21.6716 116.273C-21.4536 116.022 -21.2351 115.771 -21.0162 115.52L-24.0309 112.891C-24.2516 113.144 -24.4718 113.397 -24.6916 113.651L-21.6716 116.273ZM-16.3568 110.254C-16.132 110.004 -15.9067 109.754 -15.6811 109.503L-18.652 106.825C-18.8795 107.077 -19.1066 107.33 -19.3332 107.582L-16.3568 110.254ZM-10.953 104.335C-10.7257 104.09 -10.4979 103.845 -10.2699 103.601L-13.1956 100.873C-13.4257 101.12 -13.6553 101.367 -13.8845 101.614L-10.953 104.335ZM-5.43282 98.4891C-5.20222 98.2491 -4.97127 98.0091 -4.73997 97.7694L-7.61866 94.9921C-7.85196 95.234 -8.0849 95.4759 -8.31748 95.7181L-5.43282 98.4891ZM0.167954 92.7593C0.404032 92.522 0.640443 92.2848 0.877184 92.0479L-1.95232 89.2206C-2.19116 89.4596 -2.42967 89.6988 -2.66784 89.9382L0.167954 92.7593ZM5.8794 87.1203C6.11911 86.8879 6.35912 86.6557 6.59944 86.4238L3.82176 83.5455C3.57922 83.7796 3.337 84.0139 3.0951 84.2484L5.8794 87.1203ZM11.6904 81.5907C11.9349 81.3624 12.1797 81.1344 12.4247 80.9067L9.70189 77.9764C9.45447 78.2064 9.20733 78.4366 8.9605 78.667L11.6904 81.5907ZM17.6053 76.1746C17.8539 75.9514 18.1028 75.7286 18.3519 75.5061L15.6874 72.5228C15.4357 72.7475 15.1844 72.9726 14.9333 73.1979L17.6053 76.1746ZM23.6244 70.8813C23.8779 70.663 24.1317 70.445 24.3857 70.2274L21.7835 67.1896C21.5268 67.4094 21.2703 67.6297 21.0142 67.8503L23.6244 70.8813ZM29.7558 65.7146C30.0132 65.5025 30.2708 65.2908 30.5287 65.0795L27.9934 61.9856C27.7327 62.1992 27.4722 62.4133 27.2119 62.6278L29.7558 65.7146ZM35.9979 60.6885C36.2608 60.4819 36.5239 60.2756 36.7872 60.0699L34.3242 56.9181C34.0578 57.1263 33.7916 57.335 33.5256 57.5441L35.9979 60.6885ZM42.3469 55.8194C42.6131 55.6205 42.8795 55.422 43.146 55.2241L40.7612 52.0127C40.4913 52.2132 40.2216 52.4142 39.952 52.6156L42.3469 55.8194ZM48.8311 51.1017C49.1033 50.9091 49.3757 50.7171 49.6483 50.5256L47.349 47.2525C47.0727 47.4466 46.7966 47.6412 46.5208 47.8364L48.8311 51.1017ZM55.4159 46.5778C55.6949 46.3918 55.9742 46.2064 56.2536 46.0217L54.0475 42.685C53.764 42.8725 53.4807 43.0605 53.1976 43.2492L55.4159 46.5778ZM62.1433 42.2378C62.4248 42.0622 62.7065 41.8873 62.9882 41.7131L60.8848 38.3108C60.5986 38.4878 60.3125 38.6654 60.0266 38.8438L62.1433 42.2378ZM68.9972 38.1149C69.286 37.9477 69.5749 37.7811 69.864 37.6154L67.8739 34.1455C67.5799 34.3142 67.2861 34.4835 66.9924 34.6537L68.9972 38.1149ZM75.9506 34.2473C76.2473 34.0892 76.5441 33.9319 76.8409 33.7754L74.976 30.2368C74.6736 30.3962 74.3713 30.5564 74.0691 30.7175L75.9506 34.2473ZM83.0897 30.6153C83.3879 30.4709 83.6861 30.3274 83.9844 30.1848L82.2593 26.5759C81.9549 26.7215 81.6506 26.8679 81.3464 27.0152L83.0897 30.6153ZM90.3338 27.2914C90.6399 27.1588 90.946 27.0272 91.2522 26.8966L89.6828 23.2173C89.3697 23.3509 89.0567 23.4854 88.7438 23.6209L90.3338 27.2914ZM97.689 24.3017C97.9997 24.1838 98.3103 24.067 98.621 23.9513L97.2248 20.2029C96.9064 20.3215 96.5882 20.4411 96.27 20.5619L97.689 24.3017ZM105.22 21.6581C105.534 21.5568 105.848 21.4567 106.163 21.3577L104.961 17.5424C104.639 17.6441 104.316 17.7469 103.993 17.8509L105.22 21.6581ZM112.842 19.4307C113.163 19.3466 113.485 19.2638 113.806 19.1822L112.821 15.3052C112.491 15.3892 112.16 15.4745 111.829 15.5611L112.842 19.4307ZM120.55 17.6583C120.877 17.5936 121.204 17.5304 121.531 17.4685L120.787 13.5382C120.449 13.6021 120.112 13.6675 119.774 13.7342L120.55 17.6583ZM128.387 16.376C128.713 16.334 129.039 16.2934 129.365 16.2543L128.888 12.2828C128.55 12.3234 128.213 12.3654 127.876 12.4089L128.387 16.376ZM136.262 15.6452C136.591 15.6268 136.92 15.6099 137.249 15.5946L137.063 11.5989C136.722 11.6148 136.38 11.6323 136.038 11.6514L136.262 15.6452ZM144.149 15.507C144.479 15.5141 144.808 15.523 145.137 15.5334L145.264 11.5354C144.922 11.5245 144.579 11.5154 144.236 11.5079L144.149 15.507ZM152.025 16.0003C152.351 16.0344 152.678 16.0703 153.004 16.1078L153.462 12.1341C153.122 12.0949 152.781 12.0575 152.44 12.0219L152.025 16.0003ZM159.813 17.1511C160.136 17.2131 160.458 17.2769 160.781 17.3425L161.578 13.4227C161.242 13.3543 160.905 13.2876 160.568 13.2229L159.813 17.1511ZM167.469 18.9716C167.783 19.0611 168.098 19.1525 168.412 19.2456L169.549 15.4106C169.221 15.3133 168.892 15.2179 168.564 15.1244L167.469 18.9716ZM174.968 21.4681C175.27 21.5836 175.572 21.7008 175.873 21.8198L177.342 18.0991C177.027 17.9749 176.712 17.8525 176.397 17.732L174.968 21.4681ZM182.17 24.5824C182.468 24.7267 182.766 24.8728 183.064 25.0207L184.844 21.4387C184.534 21.2844 184.223 21.1321 183.912 20.9817L182.17 24.5824ZM189.105 28.299C189.387 28.4651 189.668 28.6329 189.949 28.8025L192.015 25.377C191.722 25.2006 191.429 25.026 191.136 24.8532L189.105 28.299ZM195.796 32.6085C196.059 32.7923 196.321 32.9777 196.583 33.1648L198.907 29.909C198.635 29.7149 198.363 29.5225 198.09 29.3318L195.796 32.6085ZM202.051 37.3339C202.309 37.544 202.568 37.7558 202.826 37.9693L205.375 34.8868C205.108 34.6659 204.841 34.4467 204.573 34.2293L202.051 37.3339ZM208.027 42.5324C208.265 42.7536 208.503 42.9762 208.74 43.2004L211.486 40.291C211.24 40.0598 210.995 39.83 210.749 39.6018L208.027 42.5324ZM213.694 48.1326C213.928 48.3783 214.162 48.6254 214.396 48.8742L217.311 46.1358C217.071 45.8799 216.83 45.6256 216.589 45.3728L213.694 48.1326ZM218.966 53.9803C219.18 54.2302 219.393 54.4815 219.606 54.7342L222.664 52.1561C222.446 51.8969 222.227 51.639 222.008 51.3824L218.966 53.9803ZM224.044 60.2443C224.251 60.5133 224.458 60.7836 224.665 61.0554L227.848 58.6338C227.637 58.3556 227.425 58.0789 227.213 57.8035L224.044 60.2443ZM228.684 66.5591C228.874 66.8297 229.064 67.1015 229.253 67.3745L232.54 65.0946C232.346 64.8157 232.153 64.5381 231.959 64.2616L228.684 66.5591ZM233.197 73.289C233.381 73.5767 233.565 73.8656 233.749 74.1557L237.127 72.0135C236.94 71.7177 236.752 71.4232 236.564 71.1299L233.197 73.289ZM237.305 79.9663C237.473 80.2505 237.641 80.5357 237.808 80.8221L241.261 78.8027C241.091 78.5114 240.92 78.2211 240.749 77.9318L237.305 79.9663ZM241.293 86.9941C241.458 87.2956 241.622 87.5982 241.786 87.9019L245.306 86.0014C245.139 85.6928 244.972 85.3853 244.805 85.0789L241.293 86.9941ZM244.973 93.9985C245.121 94.2907 245.269 94.5838 245.416 94.8778L248.992 93.084C248.842 92.7857 248.692 92.4883 248.542 92.1918L244.973 93.9985ZM248.486 101.191C248.63 101.498 248.775 101.807 248.919 102.116L252.544 100.424C252.397 100.11 252.251 99.7978 252.104 99.4864L248.486 101.191ZM251.828 108.537C251.958 108.833 252.088 109.13 252.218 109.427L255.884 107.829C255.753 107.528 255.622 107.227 255.49 106.928L251.828 108.537ZM254.915 115.795C255.042 116.104 255.169 116.414 255.296 116.725L258.999 115.213C258.871 114.899 258.743 114.585 258.614 114.273L254.915 115.795ZM257.933 123.371C258.057 123.693 258.181 124.017 258.305 124.341L262.041 122.912C261.916 122.584 261.791 122.258 261.665 121.932L257.933 123.371ZM260.703 130.779C260.815 131.087 260.926 131.396 261.037 131.705L264.801 130.35C264.689 130.038 264.576 129.727 264.463 129.416L260.703 130.779ZM263.351 138.306C263.46 138.626 263.569 138.946 263.678 139.267L267.466 137.983C267.356 137.66 267.247 137.337 267.137 137.014L263.351 138.306ZM265.936 146.113C265.989 146.278 266.042 146.444 266.095 146.61L269.905 145.39C269.851 145.223 269.798 145.056 269.744 144.889L265.936 146.113ZM266.095 146.61C266.148 146.775 266.201 146.94 266.254 147.105L270.063 145.883C270.01 145.719 269.957 145.555 269.905 145.39L266.095 146.61ZM268.509 153.965C268.618 154.288 268.727 154.61 268.836 154.932L272.624 153.648C272.516 153.329 272.408 153.009 272.3 152.689L268.509 153.965ZM271.153 161.616C271.265 161.93 271.377 162.244 271.489 162.558L275.256 161.213C275.145 160.902 275.034 160.59 274.923 160.278L271.153 161.616ZM273.868 169.068C273.982 169.374 274.097 169.68 274.212 169.986L277.956 168.577C277.842 168.274 277.728 167.971 277.614 167.667L273.868 169.068ZM276.733 176.531C276.859 176.852 276.986 177.172 277.113 177.491L280.83 176.016C280.705 175.699 280.579 175.382 280.454 175.064L276.733 176.531ZM279.805 184.114C279.934 184.425 280.064 184.736 280.194 185.046L283.883 183.5C283.754 183.193 283.626 182.885 283.497 182.576L279.805 184.114ZM282.953 191.474C283.086 191.776 283.219 192.077 283.352 192.378L287.01 190.76C286.878 190.462 286.746 190.163 286.615 189.864L282.953 191.474ZM286.195 198.653C286.341 198.968 286.487 199.282 286.633 199.596L290.257 197.902C290.112 197.592 289.968 197.282 289.823 196.97L286.195 198.653ZM289.741 206.082C289.89 206.387 290.04 206.69 290.19 206.994L293.775 205.22C293.627 204.92 293.479 204.62 293.331 204.319L289.741 206.082ZM293.368 213.262C293.521 213.556 293.674 213.85 293.828 214.142L297.371 212.287C297.22 211.998 297.069 211.708 296.918 211.417L293.368 213.262ZM297.077 220.197C297.244 220.502 297.412 220.805 297.58 221.108L301.079 219.169C300.913 218.87 300.747 218.57 300.581 218.269L297.077 220.197ZM301.142 227.366C301.313 227.659 301.484 227.951 301.656 228.243L305.103 226.213C304.933 225.926 304.764 225.637 304.595 225.348L301.142 227.366ZM305.293 234.259C305.468 234.54 305.643 234.821 305.818 235.101L309.209 232.98C309.036 232.703 308.864 232.426 308.691 232.149L305.293 234.259ZM309.569 240.94C309.76 241.229 309.951 241.517 310.142 241.805L313.473 239.589C313.284 239.306 313.096 239.022 312.908 238.737L309.569 240.94ZM314.192 247.722C314.387 247.998 314.581 248.273 314.776 248.548L318.038 246.232C317.846 245.962 317.654 245.691 317.463 245.419L314.192 247.722ZM318.905 254.199C319.103 254.462 319.301 254.725 319.5 254.987L322.688 252.571C322.492 252.313 322.297 252.054 322.102 251.795L318.905 254.199ZM323.85 260.558C324.065 260.825 324.281 261.092 324.496 261.357L327.602 258.836C327.39 258.575 327.178 258.313 326.967 258.05L323.85 260.558ZM329.059 266.806C329.278 267.06 329.497 267.312 329.716 267.564L332.732 264.935C332.516 264.688 332.301 264.44 332.086 264.191L329.059 266.806ZM334.358 272.723C334.588 272.972 334.819 273.219 335.05 273.466L337.968 270.73C337.742 270.488 337.515 270.245 337.289 270.002L334.358 272.723ZM340.053 278.625C340.293 278.864 340.533 279.103 340.773 279.34L343.583 276.493C343.347 276.26 343.112 276.027 342.876 275.792L340.053 278.625ZM345.856 284.185C346.1 284.409 346.344 284.632 346.588 284.855L349.282 281.898C349.043 281.68 348.804 281.461 348.565 281.242L345.856 284.185ZM351.931 289.547C352.192 289.767 352.452 289.987 352.713 290.205L355.28 287.137C355.025 286.923 354.769 286.709 354.514 286.493L351.931 289.547ZM358.228 294.644C358.492 294.848 358.756 295.052 359.021 295.254L361.452 292.078C361.193 291.88 360.934 291.681 360.676 291.481L358.228 294.644ZM364.707 299.431C364.987 299.629 365.267 299.825 365.547 300.02L367.832 296.737C367.558 296.546 367.284 296.354 367.011 296.162L364.707 299.431ZM371.466 303.963C371.749 304.143 372.033 304.323 372.317 304.501L374.446 301.115C374.169 300.941 373.892 300.765 373.615 300.589L371.466 303.963ZM378.351 308.123C378.648 308.293 378.946 308.462 379.244 308.63L381.209 305.146C380.918 304.983 380.628 304.818 380.338 304.652L378.351 308.123ZM385.523 311.997C385.823 312.15 386.123 312.302 386.424 312.453L388.216 308.877C387.923 308.73 387.63 308.581 387.337 308.432L385.523 311.997ZM392.787 315.472C393.099 315.612 393.411 315.75 393.723 315.888L395.336 312.228C395.032 312.093 394.728 311.958 394.423 311.822L392.787 315.472ZM400.304 318.617C400.618 318.739 400.933 318.86 401.248 318.98L402.675 315.244C402.368 315.126 402.061 315.008 401.754 314.889L400.304 318.617ZM407.893 321.353C408.216 321.46 408.54 321.566 408.863 321.672L410.101 317.868C409.786 317.765 409.47 317.662 409.155 317.557L407.893 321.353ZM415.677 323.724C416.002 323.814 416.327 323.903 416.653 323.991L417.697 320.13C417.38 320.044 417.062 319.957 416.745 319.869L415.677 323.724ZM423.515 325.688C423.846 325.762 424.178 325.835 424.509 325.907L425.36 321.999C425.037 321.928 424.714 321.857 424.39 321.784L423.515 325.688ZM431.482 327.268C431.815 327.326 432.147 327.382 432.48 327.437L433.137 323.492C432.813 323.438 432.488 323.383 432.164 323.327L431.482 327.268ZM439.485 328.452C439.821 328.493 440.157 328.534 440.493 328.573L440.959 324.6C440.631 324.562 440.303 324.523 439.974 324.482L439.485 328.452ZM447.555 329.252C447.891 329.278 448.228 329.302 448.564 329.325L448.841 325.335C448.513 325.312 448.184 325.288 447.855 325.264L447.555 329.252ZM455.637 329.672C455.975 329.682 456.312 329.691 456.65 329.699L456.743 325.7C456.413 325.692 456.083 325.684 455.753 325.674L455.637 329.672ZM463.737 329.723C464.074 329.718 464.411 329.711 464.748 329.704L464.662 325.705C464.332 325.712 464.002 325.718 463.672 325.724L463.737 329.723ZM471.823 329.415C472.159 329.395 472.496 329.374 472.833 329.352L472.572 325.361C472.243 325.382 471.914 325.403 471.584 325.423L471.823 329.415ZM479.888 328.761C480.224 328.727 480.559 328.692 480.894 328.656L480.467 324.679C480.138 324.714 479.81 324.748 479.481 324.782L479.888 328.761ZM487.916 327.773C488.25 327.726 488.583 327.677 488.916 327.627L488.328 323.671C488.001 323.719 487.674 323.767 487.347 323.814L487.916 327.773ZM495.896 326.465C496.228 326.404 496.559 326.343 496.89 326.28L496.147 322.35C495.822 322.411 495.497 322.472 495.172 322.531L495.896 326.465ZM503.817 324.85C504.146 324.777 504.474 324.703 504.802 324.628L503.911 320.728C503.589 320.802 503.267 320.875 502.944 320.947L503.817 324.85ZM511.67 322.942C511.996 322.856 512.321 322.77 512.647 322.683L511.614 318.819C511.294 318.904 510.975 318.989 510.655 319.073L511.67 322.942ZM519.447 320.752C519.769 320.655 520.091 320.557 520.413 320.459L519.245 316.634C518.929 316.73 518.612 316.826 518.295 316.921L519.447 320.752ZM527.141 318.293C527.459 318.186 527.778 318.077 528.096 317.968L526.798 314.184C526.485 314.292 526.172 314.398 525.858 314.505L527.141 318.293ZM534.747 315.577C535.061 315.459 535.376 315.34 535.691 315.22L534.268 311.482C533.959 311.599 533.649 311.716 533.339 311.833L534.747 315.577ZM542.255 312.615C542.566 312.487 542.876 312.358 543.186 312.228L541.644 308.538C541.339 308.665 541.033 308.792 540.728 308.918L542.255 312.615ZM549.669 309.415C549.976 309.277 550.282 309.138 550.588 308.999L548.932 305.358C548.63 305.495 548.328 305.632 548.026 305.768L549.669 309.415ZM556.971 305.99C557.272 305.843 557.574 305.696 557.875 305.547L556.108 301.959C555.811 302.105 555.514 302.25 555.217 302.395L556.971 305.99ZM564.176 302.341C564.474 302.184 564.771 302.027 565.069 301.87L563.195 298.336C562.902 298.491 562.609 298.646 562.316 298.8L564.176 302.341ZM571.252 298.489C571.545 298.324 571.837 298.158 572.129 297.992L570.152 294.515C569.864 294.678 569.576 294.841 569.288 295.004L571.252 298.489ZM578.235 294.418C578.522 294.244 578.81 294.07 579.097 293.896L577.02 290.477C576.737 290.649 576.454 290.821 576.17 290.992L578.235 294.418ZM585.066 290.166C585.351 289.983 585.635 289.799 585.918 289.616L583.744 286.258C583.464 286.439 583.184 286.62 582.904 286.8L585.066 290.166ZM591.809 285.695C592.086 285.505 592.363 285.315 592.639 285.125L590.369 281.831C590.097 282.019 589.824 282.206 589.551 282.393L591.809 285.695ZM598.386 281.057C598.66 280.858 598.933 280.658 599.206 280.458L596.843 277.231C596.574 277.428 596.304 277.625 596.034 277.821L598.386 281.057ZM604.859 276.208C605.124 276.003 605.389 275.798 605.653 275.592L603.198 272.435C602.937 272.637 602.676 272.84 602.414 273.042L604.859 276.208ZM611.164 271.192C611.426 270.978 611.687 270.763 611.948 270.547L609.401 267.463C609.144 267.675 608.887 267.887 608.629 268.099L611.164 271.192ZM617.335 265.98C617.587 265.761 617.838 265.541 618.089 265.321L615.451 262.314C615.204 262.531 614.956 262.747 614.708 262.964L617.335 265.98ZM623.344 260.586C623.592 260.356 623.84 260.126 624.087 259.896L621.358 256.971C621.115 257.198 620.871 257.424 620.627 257.651L623.344 260.586ZM629.168 255.023C629.405 254.79 629.641 254.556 629.877 254.322L627.057 251.484C626.825 251.715 626.593 251.945 626.36 252.175L629.168 255.023ZM634.846 249.239C635.079 248.994 635.31 248.749 635.541 248.505L632.628 245.762C632.402 246.003 632.174 246.244 631.946 246.484L634.846 249.239ZM640.274 243.324C640.501 243.068 640.728 242.811 640.953 242.554L637.948 239.915C637.726 240.167 637.504 240.419 637.281 240.671L640.274 243.324ZM645.557 237.14C645.769 236.881 645.981 236.622 646.192 236.363L643.091 233.837C642.884 234.091 642.676 234.345 642.467 234.599L645.557 237.14ZM650.568 230.799C650.773 230.527 650.978 230.256 651.182 229.984L647.982 227.584C647.783 227.85 647.582 228.116 647.38 228.382L650.568 230.799ZM655.303 224.272C655.491 224 655.679 223.728 655.865 223.456L652.565 221.196C652.382 221.462 652.199 221.728 652.015 221.994L655.303 224.272ZM659.788 217.463C659.967 217.177 660.144 216.891 660.32 216.606L656.913 214.509C656.742 214.787 656.569 215.066 656.395 215.344L659.788 217.463ZM663.897 210.484C664.063 210.184 664.228 209.883 664.391 209.583L660.877 207.673C660.718 207.965 660.558 208.257 660.397 208.549L663.897 210.484ZM667.597 203.3C667.668 203.151 667.739 203.002 667.809 202.853L664.191 201.147C664.123 201.291 664.055 201.435 663.986 201.579L667.597 203.3ZM667.809 202.853C667.879 202.704 667.949 202.556 668.02 202.407L664.405 200.695C664.333 200.845 664.262 200.996 664.191 201.147L667.809 202.853ZM671.042 196.202C671.189 195.908 671.337 195.615 671.485 195.322L667.914 193.52C667.764 193.817 667.615 194.114 667.466 194.411L671.042 196.202ZM674.661 189.197C674.815 188.907 674.97 188.617 675.125 188.327L671.601 186.436C671.443 186.729 671.286 187.023 671.13 187.317L674.661 189.197ZM678.452 182.287C678.613 182 678.776 181.714 678.938 181.428L675.462 179.45C675.297 179.739 675.133 180.029 674.969 180.319L678.452 182.287ZM682.415 175.471C682.584 175.19 682.752 174.908 682.922 174.628L679.496 172.563C679.324 172.847 679.153 173.132 678.983 173.417L682.415 175.471ZM686.549 168.755C686.725 168.477 686.901 168.2 687.077 167.923L683.704 165.773C683.525 166.054 683.347 166.334 683.169 166.615L686.549 168.755ZM690.848 162.146C691.031 161.873 691.214 161.6 691.398 161.327L688.079 159.094C687.893 159.37 687.708 159.646 687.523 159.923L690.848 162.146ZM695.31 155.651C695.499 155.382 695.689 155.113 695.88 154.845L692.619 152.529C692.426 152.8 692.233 153.072 692.041 153.345L695.31 155.651ZM699.936 149.264C700.132 149.001 700.328 148.738 700.525 148.476L697.323 146.078C697.124 146.344 696.925 146.61 696.727 146.877L699.936 149.264ZM704.723 142.997C704.925 142.739 705.128 142.481 705.332 142.223L702.192 139.745C701.986 140.006 701.78 140.267 701.575 140.529L704.723 142.997ZM709.664 136.857C709.874 136.603 710.084 136.35 710.294 136.097L707.218 133.54C707.005 133.796 706.792 134.052 706.58 134.309L709.664 136.857ZM714.759 130.847C714.975 130.599 715.191 130.351 715.408 130.103L712.399 127.468C712.179 127.719 711.96 127.97 711.741 128.222L714.759 130.847ZM720.012 124.965C720.233 124.723 720.455 124.482 720.677 124.241L717.738 121.529C717.512 121.773 717.288 122.017 717.063 122.262L720.012 124.965ZM725.414 119.223C725.642 118.987 725.871 118.751 726.1 118.516L723.232 115.727C723 115.966 722.768 116.205 722.537 116.444L725.414 119.223ZM730.963 113.628C731.198 113.397 731.433 113.167 731.668 112.938L728.875 110.075C728.636 110.307 728.398 110.54 728.16 110.774L730.963 113.628ZM736.655 108.185C736.896 107.96 737.138 107.736 737.379 107.513L734.664 104.576C734.419 104.802 734.174 105.029 733.93 105.257L736.655 108.185ZM742.498 102.892C742.743 102.675 742.99 102.459 743.236 102.243L740.601 99.2332C740.351 99.452 740.102 99.6712 739.853 99.8909L742.498 102.892ZM748.481 97.761C748.733 97.5508 748.986 97.3412 749.238 97.1321L746.687 94.051C746.431 94.2631 746.175 94.4757 745.92 94.6888L748.481 97.761ZM754.601 92.801C754.859 92.5977 755.118 92.3949 755.377 92.1927L752.913 89.0414C752.65 89.2466 752.388 89.4522 752.127 89.6584L754.601 92.801ZM760.855 88.0181C761.119 87.822 761.384 87.6264 761.648 87.4313L759.276 84.2112C759.007 84.4091 758.739 84.6075 758.471 84.8065L760.855 88.0181ZM767.246 83.4148C767.514 83.2274 767.783 83.0405 768.052 82.8541L765.773 79.5665C765.501 79.7556 765.228 79.9453 764.956 80.1355L767.246 83.4148ZM773.771 78.9987C774.045 78.8191 774.32 78.64 774.594 78.4615L772.414 75.1078C772.135 75.289 771.857 75.4708 771.579 75.6532L773.771 78.9987ZM780.422 74.7817C780.701 74.6102 780.981 74.4393 781.261 74.2689L779.184 70.8509C778.899 71.0239 778.615 71.1975 778.331 71.3716L780.422 74.7817ZM787.193 70.7715C787.479 70.6085 787.764 70.4461 788.05 70.2843L786.079 66.8037C785.788 66.9681 785.498 67.1331 785.209 67.2987L787.193 70.7715ZM794.083 66.9761C794.374 66.822 794.665 66.6685 794.956 66.5156L793.095 62.9745C792.8 63.1298 792.504 63.2858 792.209 63.4425L794.083 66.9761ZM801.097 63.399C801.391 63.2551 801.685 63.1118 801.979 62.9692L800.234 59.3698C799.935 59.5148 799.636 59.6605 799.337 59.8068L801.097 63.399ZM808.221 60.0538C808.52 59.9195 808.819 59.7859 809.118 59.653L807.493 55.9977C807.189 56.1329 806.885 56.2688 806.581 56.4054L808.221 60.0538ZM815.45 56.9504C815.753 56.8262 816.057 56.7026 816.36 56.5798L814.861 52.8715C814.552 52.9965 814.243 53.1222 813.934 53.2485L815.45 56.9504ZM822.776 54.0978C823.084 53.9841 823.392 53.8712 823.7 53.7589L822.331 50.0006C822.017 50.1149 821.704 50.2299 821.39 50.3457L822.776 54.0978ZM830.196 51.5055C830.508 51.4027 830.82 51.3007 831.132 51.1994L829.897 47.3947C829.579 47.4979 829.262 47.6018 828.944 47.7064L830.196 51.5055ZM837.707 49.1811C838.021 49.0901 838.335 49 838.649 48.9106L837.555 45.0633C837.234 45.1544 836.914 45.2462 836.594 45.3388L837.707 49.1811ZM845.297 47.1359C845.615 47.0567 845.932 46.9783 846.25 46.9007L845.3 43.015C844.976 43.0942 844.653 43.1741 844.329 43.2548L845.297 47.1359ZM852.956 45.3801C853.276 45.3131 853.597 45.2469 853.917 45.1815L853.118 41.2623C852.791 41.329 852.464 41.3965 852.137 41.4648L852.956 45.3801ZM860.674 43.9228C860.997 43.8684 861.32 43.8148 861.643 43.762L860.998 39.8144C860.668 39.8682 860.339 39.9229 860.009 39.9784L860.674 43.9228ZM868.441 42.7725C868.766 42.731 869.091 42.6904 869.416 42.6506L868.93 38.6803C868.598 38.7209 868.267 38.7624 867.935 38.8047L868.441 42.7725ZM876.248 41.9373C876.574 41.9092 876.9 41.8819 877.226 41.8555L876.903 37.8686C876.57 37.8956 876.237 37.9234 875.904 37.9521L876.248 41.9373ZM884.082 41.4248C884.409 41.4103 884.736 41.3966 885.063 41.3838L884.906 37.3869C884.572 37.4 884.238 37.414 883.905 37.4288L884.082 41.4248ZM891.928 41.2416C892.256 41.2409 892.583 41.2411 892.91 41.2422L892.923 37.2422C892.588 37.2411 892.254 37.2409 891.92 37.2416L891.928 41.2416ZM899.773 41.3928C900.1 41.4061 900.427 41.4204 900.754 41.4354L900.938 37.4397C900.604 37.4243 900.27 37.4098 899.936 37.3961L899.773 41.3928ZM907.604 41.8823C907.93 41.9098 908.255 41.9381 908.581 41.9674L908.939 37.9834C908.606 37.9535 908.273 37.9245 907.941 37.8965L907.604 41.8823ZM915.408 42.7127C915.732 42.7543 916.055 42.7969 916.379 42.8403L916.911 38.8758C916.58 38.8314 916.249 38.788 915.918 38.7454L915.408 42.7127ZM923.168 43.8848C923.329 43.9128 923.491 43.9411 923.652 43.9696L924.348 40.0304C924.182 40.0013 924.017 39.9724 923.852 39.9437L923.168 43.8848Z" fill="#3D99F5"/>
</svg>
